<svg id="expressjs" xmlns="http://www.w3.org/2000/svg" width="172.78" height="89.845" viewBox="0 0 172.78 89.845">
  <defs>
    <style>
      .cls-1 {
        fill: silver;
      }
    </style>
  </defs>
  <rect id="Rectangle_2" data-name="Rectangle 2" class="cls-1"/>
  <g id="Group_6" data-name="Group 6" transform="translate(16.22 4.123)">
    <path id="Path_9" data-name="Path 9" class="cls-1" d="M160.16,173.024c-5.888.981-9.352,0-12.469-4.578-6.927-9.809-14.894-19.619-22.168-29.428l-3.117-3.924c-9.352,11.444-18.358,22.234-26.324,33.351-3.117,4.251-6.235,5.886-11.777,4.578l33.6-42.834L86.383,91.934c5.542-.981,9.352-.654,12.469,4.251,7.274,9.809,15.24,19.292,23.553,29.428l23.207-29.428c3.117-4.251,6.235-5.559,11.43-4.251L144.92,107.3,128.64,127.247c-2.078,2.289-1.732,3.924,0,6.213ZM3.946,129.536a80.016,80.016,0,0,1,2.771-12.425c7.274-25.5,38.1-35.967,59.23-20.272,12.469,9.155,15.587,21.907,14.894,36.621H10.874c-1.039,26.158,19.05,41.853,44.682,34.005,8.659-2.943,13.855-9.482,16.626-17.657,1.385-4.251,3.464-4.9,7.62-3.6-2.078,10.136-6.927,18.638-16.972,24.2-14.894,8.174-36.369,5.559-47.453-5.886-6.581-6.54-9.352-14.387-10.738-23.215L3.6,137.057v-7.193ZM11.22,127.9H74.26C73.567,108.937,61.1,95.531,44.472,95.531,25.768,95.2,11.913,108.61,11.22,127.9Z" transform="translate(-3.6 -89.443)"/>
  </g>
</svg>
